<svg version="1.1" xmlns="http://www.w3.org/2000/svg" preserveAspectRatio="xMidYMid meet" width="36px" height="22px" viewBox="-7 -4 36 22" class="u7 uzlpSb">
	<path d="m6.165,5.363c.438-.427 .478-1.019 .478-1.351 0-1.33-.821-3.397-2.407-3.397-.496,0-1.031,.239-1.337,.61-.325,.388-.42,.883-.42,1.358 0,1.236 .745,3.287 2.388,3.287 .476,.009 .991-.212 1.298-.507m-1.248,3.491c0,0-1.062,.092-1.865,.354-.419,.146-1.529,.535-1.529,1.854 0,1.312 1.318,2.252 3.362,2.252 1.833,0 2.809-.852 2.809-1.994 0-.938-.92-1.893-2.083-2.438-.219-.003-.694-.028-.694-.028zm2.426-7.942c.321,.381 .98,.987 .98,2.252 0,1.367-.804,2.014-1.604,2.623-.248,.239-.535,.498-.535,.905 0,.406 .287,.63 .496,.793l.688,.519c.841,.687 1.592,1.312 1.592,2.588 0,1.736-1.728,3.408-5.011,3.408-2.771,0-3.949-1.189-3.949-2.561 0-.666 .185-1.744 1.312-2.396 1.185-.695 2.536-.771 3.394-.814-.268-.333-.318-.575-.318-1.147 0-.313 .098-.5 .193-.723-.211,.02-.422,.037-.613,.037-2.024,0-3.171-1.459-3.171-2.898 0-.852 .403-1.793 1.223-2.477 1.089-.867 2.388-1.021 3.418-1.021h3.521l-.682,.904h-.937l.003,.008z"></path>
	<path d="m6.165,5.363c.438-.427 .478-1.019 .478-1.351 0-1.33-.821-3.397-2.407-3.397-.496,0-1.031,.239-1.337,.61-.325,.388-.42,.883-.42,1.358 0,1.236 .745,3.287 2.388,3.287 .476,.009 .991-.212 1.298-.507m-1.248,3.491c0,0-1.062,.092-1.865,.354-.419,.146-1.529,.535-1.529,1.854 0,1.312 1.318,2.252 3.362,2.252 1.833,0 2.809-.852 2.809-1.994 0-.938-.92-1.893-2.083-2.438-.219-.003-.694-.028-.694-.028zm2.426-7.942c.321,.381 .98,.987 .98,2.252 0,1.367-.804,2.014-1.604,2.623-.248,.239-.535,.498-.535,.905 0,.406 .287,.63 .496,.793l.688,.519c.841,.687 1.592,1.312 1.592,2.588 0,1.736-1.677,3.408-4.96,3.408-2.771,0-4-1.189-4-2.561 0-.666 .185-1.744 1.312-2.396 1.185-.695 2.536-.771 3.394-.814-.268-.333-.318-.575-.318-1.147 0-.313 .098-.5 .193-.723-.211,.02-.422,.037-.613,.037-2.024,0-3.171-1.459-3.171-2.898 0-.852 .403-1.793 1.223-2.477 1.089-.867 2.388-1.021 3.418-1.021h3.521l-.682,.904h-.937l.003,.008z"></path>
	<path d="M15,4h-2v2h-2v2h2v2h2V8h2V6h-2V4z M18.004"></path>
</svg>